<mxfile host="app.diagrams.net" agent="Mozilla/5.0 (Macintosh; Intel Mac OS X 10_15_7) AppleWebKit/605.1.15 (KHTML, like Gecko) Version/18.4 Safari/605.1.15" version="26.2.14" pages="4">
  <diagram name="9 Flow" id="kw5tApQOLxetqISVFKjF">
    <mxGraphModel dx="4026" dy="3768" grid="1" gridSize="10" guides="1" tooltips="1" connect="1" arrows="1" fold="1" page="1" pageScale="1" pageWidth="3000" pageHeight="3000" background="light-dark(#FFFFFF,#000000)" math="0" shadow="0">
      <root>
        <mxCell id="0" />
        <mxCell id="1" parent="0" />
        <mxCell id="RP1mrb15_0kgAFn6U0BM-28" value="&lt;div&gt;&lt;font&gt;When Kamran &quot;&lt;font color=&quot;#ff80ee&quot;&gt;&lt;span style=&quot;caret-color: rgb(255, 128, 238);&quot;&gt;Sign Up&lt;/span&gt;&lt;/font&gt;&quot; on WhatsApp&lt;/font&gt;&lt;/div&gt;" style="text;html=1;align=left;verticalAlign=middle;whiteSpace=wrap;rounded=0;fontFamily=Gloria Hallelujah;fontSource=https%3A%2F%2Ffonts.googleapis.com%2Fcss%3Ffamily%3DGloria%2BHallelujah;fontSize=110;fontColor=default;" parent="1" vertex="1">
          <mxGeometry x="168.03" y="100" width="2751.97" height="96.33" as="geometry" />
        </mxCell>
        <mxCell id="RP1mrb15_0kgAFn6U0BM-29" value="" style="shape=link;html=1;rounded=0;fontFamily=Gloria Hallelujah;fontSource=https%3A%2F%2Ffonts.googleapis.com%2Fcss%3Ffamily%3DGloria%2BHallelujah;fontSize=31;fontColor=default;width=0;strokeColor=light-dark(#000000,#76B7AC);strokeWidth=8;" parent="1" edge="1">
          <mxGeometry width="100" relative="1" as="geometry">
            <mxPoint x="130" y="196.33333333333331" as="sourcePoint" />
            <mxPoint x="130" y="100" as="targetPoint" />
          </mxGeometry>
        </mxCell>
        <mxCell id="RP1mrb15_0kgAFn6U0BM-31" value="&lt;font style=&quot;color: light-dark(rgb(0, 0, 0), rgb(118, 183, 172)); font-size: 80px;&quot;&gt;System Design Engineer&lt;/font&gt;" style="text;html=1;align=center;verticalAlign=middle;whiteSpace=wrap;rounded=1;fontFamily=Gloria Hallelujah;fontSource=https%3A%2F%2Ffonts.googleapis.com%2Fcss%3Ffamily%3DGloria%2BHallelujah;fontSize=60;fontColor=default;strokeColor=none;sketch=1;curveFitting=1;jiggle=2;" parent="1" vertex="1">
          <mxGeometry x="2230" y="234" width="707.42" height="280" as="geometry" />
        </mxCell>
        <mxCell id="nRWd147tkp-kQ7Whm1Z9-2" value="1. Phone Number Input" style="whiteSpace=wrap;strokeWidth=5;dashed=1;dashPattern=12 12;rounded=1;sketch=1;curveFitting=1;jiggle=2;fillColor=#d5e8d4;strokeColor=#82b366;fillStyle=solid;fontSize=75;fontFamily=Gloria Hallelujah;fontSource=https%3A%2F%2Ffonts.googleapis.com%2Fcss%3Ffamily%3DGloria%2BHallelujah;" parent="1" vertex="1">
          <mxGeometry x="560" y="320" width="970" height="194" as="geometry" />
        </mxCell>
        <mxCell id="nRWd147tkp-kQ7Whm1Z9-3" value="2. OTP Generation" style="whiteSpace=wrap;strokeWidth=5;rounded=1;dashed=1;dashPattern=12 12;sketch=1;jiggle=2;fillStyle=solid;curveFitting=1;strokeColor=#82b366;align=center;verticalAlign=middle;fontFamily=Gloria Hallelujah;fontSource=https%3A%2F%2Ffonts.googleapis.com%2Fcss%3Ffamily%3DGloria%2BHallelujah;fontSize=75;fontColor=default;fillColor=#d5e8d4;" parent="1" vertex="1">
          <mxGeometry x="1420" y="680" width="774.5" height="184" as="geometry" />
        </mxCell>
        <mxCell id="nRWd147tkp-kQ7Whm1Z9-4" value="3. OTP Delivery" style="whiteSpace=wrap;strokeWidth=5;rounded=1;dashed=1;dashPattern=12 12;sketch=1;jiggle=2;fillStyle=solid;curveFitting=1;strokeColor=#82b366;align=center;verticalAlign=middle;fontFamily=Gloria Hallelujah;fontSource=https%3A%2F%2Ffonts.googleapis.com%2Fcss%3Ffamily%3DGloria%2BHallelujah;fontSize=75;fontColor=default;fillColor=#d5e8d4;" parent="1" vertex="1">
          <mxGeometry x="600" y="980" width="753.5" height="154" as="geometry" />
        </mxCell>
        <mxCell id="nRWd147tkp-kQ7Whm1Z9-5" value="4. User Profile Creation" style="whiteSpace=wrap;strokeWidth=5;rounded=1;dashed=1;dashPattern=12 12;sketch=1;jiggle=2;fillStyle=solid;curveFitting=1;strokeColor=#82b366;align=center;verticalAlign=middle;fontFamily=Gloria Hallelujah;fontSource=https%3A%2F%2Ffonts.googleapis.com%2Fcss%3Ffamily%3DGloria%2BHallelujah;fontSize=75;fontColor=default;fillColor=#d5e8d4;" parent="1" vertex="1">
          <mxGeometry x="1350" y="1260" width="1182" height="170" as="geometry" />
        </mxCell>
        <mxCell id="nRWd147tkp-kQ7Whm1Z9-6" value="5. Encryption Key Generation" style="whiteSpace=wrap;strokeWidth=5;rounded=1;dashed=1;dashPattern=12 12;sketch=1;jiggle=2;fillStyle=solid;curveFitting=1;strokeColor=#82b366;align=center;verticalAlign=middle;fontFamily=Gloria Hallelujah;fontSource=https%3A%2F%2Ffonts.googleapis.com%2Fcss%3Ffamily%3DGloria%2BHallelujah;fontSize=75;fontColor=default;fillColor=#d5e8d4;" parent="1" vertex="1">
          <mxGeometry x="370" y="1590" width="1440" height="170" as="geometry" />
        </mxCell>
        <mxCell id="nRWd147tkp-kQ7Whm1Z9-7" value="6. Profile Setup" style="whiteSpace=wrap;strokeWidth=5;rounded=1;dashed=1;dashPattern=12 12;sketch=1;jiggle=2;fillStyle=solid;curveFitting=1;strokeColor=#82b366;align=center;verticalAlign=middle;fontFamily=Gloria Hallelujah;fontSource=https%3A%2F%2Ffonts.googleapis.com%2Fcss%3Ffamily%3DGloria%2BHallelujah;fontSize=75;fontColor=default;fillColor=#d5e8d4;" parent="1" vertex="1">
          <mxGeometry x="1400" y="1950" width="950" height="174" as="geometry" />
        </mxCell>
        <mxCell id="nRWd147tkp-kQ7Whm1Z9-8" value="7. WebSocket Connection" style="whiteSpace=wrap;strokeWidth=5;rounded=1;dashed=1;dashPattern=12 12;sketch=1;jiggle=2;fillStyle=solid;curveFitting=1;strokeColor=#82b366;align=center;verticalAlign=middle;fontFamily=Gloria Hallelujah;fontSource=https%3A%2F%2Ffonts.googleapis.com%2Fcss%3Ffamily%3DGloria%2BHallelujah;fontSize=75;fontColor=default;fillColor=#d5e8d4;" parent="1" vertex="1">
          <mxGeometry x="370" y="2250" width="1199" height="234" as="geometry" />
        </mxCell>
        <mxCell id="nRWd147tkp-kQ7Whm1Z9-9" value="8. Two-Step Verification" style="whiteSpace=wrap;strokeWidth=5;rounded=1;dashed=1;dashPattern=12 12;sketch=1;jiggle=2;fillStyle=solid;curveFitting=1;strokeColor=#82b366;align=center;verticalAlign=middle;fontFamily=Gloria Hallelujah;fontSource=https%3A%2F%2Ffonts.googleapis.com%2Fcss%3Ffamily%3DGloria%2BHallelujah;fontSize=75;fontColor=default;fillColor=#d5e8d4;" parent="1" vertex="1">
          <mxGeometry x="1420" y="2670" width="1181" height="214" as="geometry" />
        </mxCell>
        <mxCell id="nRWd147tkp-kQ7Whm1Z9-10" value="" style="startArrow=none;endArrow=block;exitX=0.5;exitY=1;entryX=0.5;entryY=0;rounded=1;fillStyle=solid;strokeColor=#b85450;strokeWidth=10;align=center;verticalAlign=middle;fontFamily=Helvetica;fontSize=11;fontColor=default;labelBackgroundColor=default;fillColor=#f8cecc;shape=flexArrow;sketch=1;curveFitting=1;jiggle=2;flowAnimation=0;edgeStyle=orthogonalEdgeStyle;" parent="1" source="nRWd147tkp-kQ7Whm1Z9-2" target="nRWd147tkp-kQ7Whm1Z9-3" edge="1">
          <mxGeometry relative="1" as="geometry" />
        </mxCell>
        <mxCell id="nRWd147tkp-kQ7Whm1Z9-11" value="" style="startArrow=none;endArrow=block;exitX=0.5;exitY=1;entryX=0.5;entryY=0;rounded=1;fillStyle=solid;strokeColor=#b85450;strokeWidth=10;align=center;verticalAlign=middle;fontFamily=Helvetica;fontSize=11;fontColor=default;labelBackgroundColor=default;fillColor=#f8cecc;shape=flexArrow;sketch=1;curveFitting=1;jiggle=2;edgeStyle=orthogonalEdgeStyle;" parent="1" source="nRWd147tkp-kQ7Whm1Z9-3" target="nRWd147tkp-kQ7Whm1Z9-4" edge="1">
          <mxGeometry relative="1" as="geometry" />
        </mxCell>
        <mxCell id="nRWd147tkp-kQ7Whm1Z9-12" value="" style="startArrow=none;endArrow=block;exitX=0.5;exitY=1;entryX=0.5;entryY=0;rounded=1;fillStyle=solid;strokeColor=#b85450;strokeWidth=10;align=center;verticalAlign=middle;fontFamily=Helvetica;fontSize=11;fontColor=default;labelBackgroundColor=default;fillColor=#f8cecc;shape=flexArrow;sketch=1;curveFitting=1;jiggle=2;edgeStyle=orthogonalEdgeStyle;" parent="1" source="nRWd147tkp-kQ7Whm1Z9-4" target="nRWd147tkp-kQ7Whm1Z9-5" edge="1">
          <mxGeometry relative="1" as="geometry" />
        </mxCell>
        <mxCell id="nRWd147tkp-kQ7Whm1Z9-13" value="" style="startArrow=none;endArrow=block;exitX=0.5;exitY=1;entryX=0.5;entryY=0;rounded=1;fillStyle=solid;strokeColor=#b85450;strokeWidth=10;align=center;verticalAlign=middle;fontFamily=Helvetica;fontSize=11;fontColor=default;labelBackgroundColor=default;fillColor=#f8cecc;shape=flexArrow;sketch=1;curveFitting=1;jiggle=2;edgeStyle=orthogonalEdgeStyle;" parent="1" source="nRWd147tkp-kQ7Whm1Z9-5" target="nRWd147tkp-kQ7Whm1Z9-6" edge="1">
          <mxGeometry relative="1" as="geometry" />
        </mxCell>
        <mxCell id="nRWd147tkp-kQ7Whm1Z9-14" value="" style="startArrow=none;endArrow=block;exitX=0.5;exitY=1;entryX=0.5;entryY=0;rounded=1;fillStyle=solid;strokeColor=#b85450;strokeWidth=10;align=center;verticalAlign=middle;fontFamily=Helvetica;fontSize=11;fontColor=default;labelBackgroundColor=default;fillColor=#f8cecc;shape=flexArrow;sketch=1;curveFitting=1;jiggle=2;edgeStyle=orthogonalEdgeStyle;" parent="1" source="nRWd147tkp-kQ7Whm1Z9-6" target="nRWd147tkp-kQ7Whm1Z9-7" edge="1">
          <mxGeometry relative="1" as="geometry" />
        </mxCell>
        <mxCell id="nRWd147tkp-kQ7Whm1Z9-15" value="" style="startArrow=none;endArrow=block;exitX=0.5;exitY=1;entryX=0.5;entryY=0;rounded=1;fillStyle=solid;strokeColor=#b85450;strokeWidth=10;align=center;verticalAlign=middle;fontFamily=Helvetica;fontSize=11;fontColor=default;labelBackgroundColor=default;fillColor=#f8cecc;shape=flexArrow;sketch=1;curveFitting=1;jiggle=2;edgeStyle=orthogonalEdgeStyle;" parent="1" source="nRWd147tkp-kQ7Whm1Z9-7" target="nRWd147tkp-kQ7Whm1Z9-8" edge="1">
          <mxGeometry relative="1" as="geometry" />
        </mxCell>
        <mxCell id="nRWd147tkp-kQ7Whm1Z9-16" value="" style="startArrow=none;endArrow=block;exitX=0.5;exitY=1;entryX=0.5;entryY=0;rounded=1;fillStyle=solid;strokeColor=#b85450;strokeWidth=10;align=center;verticalAlign=middle;fontFamily=Helvetica;fontSize=11;fontColor=default;labelBackgroundColor=default;fillColor=#f8cecc;shape=flexArrow;sketch=1;curveFitting=1;jiggle=2;edgeStyle=orthogonalEdgeStyle;" parent="1" source="nRWd147tkp-kQ7Whm1Z9-8" target="nRWd147tkp-kQ7Whm1Z9-9" edge="1">
          <mxGeometry relative="1" as="geometry" />
        </mxCell>
      </root>
    </mxGraphModel>
  </diagram>
  <diagram name="10 Flow" id="u9AXaScE4TjIE-Hu-d14">
    <mxGraphModel dx="4572" dy="3372" grid="1" gridSize="10" guides="1" tooltips="1" connect="1" arrows="1" fold="1" page="1" pageScale="1" pageWidth="3000" pageHeight="3000" background="light-dark(#FFFFFF,#000000)" math="0" shadow="0">
      <root>
        <mxCell id="P5GDUHR9ORlQU1ZmoaOM-0" />
        <mxCell id="P5GDUHR9ORlQU1ZmoaOM-1" parent="P5GDUHR9ORlQU1ZmoaOM-0" />
        <mxCell id="P5GDUHR9ORlQU1ZmoaOM-2" value="&lt;div&gt;&lt;font&gt;When Kamran tap &lt;font color=&quot;#b043a2&quot;&gt;&lt;span style=&quot;caret-color: rgb(176, 67, 162);&quot;&gt;Chats&lt;/span&gt;&lt;/font&gt;&amp;nbsp;Tab on WhatsApp&lt;/font&gt;&lt;/div&gt;" style="text;html=1;align=left;verticalAlign=middle;whiteSpace=wrap;rounded=0;fontFamily=Gloria Hallelujah;fontSource=https%3A%2F%2Ffonts.googleapis.com%2Fcss%3Ffamily%3DGloria%2BHallelujah;fontSize=110;fontColor=default;" vertex="1" parent="P5GDUHR9ORlQU1ZmoaOM-1">
          <mxGeometry x="168.03" y="100" width="2751.97" height="96.33" as="geometry" />
        </mxCell>
        <mxCell id="P5GDUHR9ORlQU1ZmoaOM-3" value="" style="shape=link;html=1;rounded=0;fontFamily=Gloria Hallelujah;fontSource=https%3A%2F%2Ffonts.googleapis.com%2Fcss%3Ffamily%3DGloria%2BHallelujah;fontSize=31;fontColor=default;width=0;strokeColor=light-dark(#000000,#76B7AC);strokeWidth=8;" edge="1" parent="P5GDUHR9ORlQU1ZmoaOM-1">
          <mxGeometry width="100" relative="1" as="geometry">
            <mxPoint x="130" y="196.33333333333331" as="sourcePoint" />
            <mxPoint x="130" y="100" as="targetPoint" />
          </mxGeometry>
        </mxCell>
        <mxCell id="P5GDUHR9ORlQU1ZmoaOM-4" value="&lt;font style=&quot;color: light-dark(rgb(0, 0, 0), rgb(118, 183, 172)); font-size: 80px;&quot;&gt;System Design Engineer&lt;/font&gt;" style="text;html=1;align=center;verticalAlign=middle;whiteSpace=wrap;rounded=1;fontFamily=Gloria Hallelujah;fontSource=https%3A%2F%2Ffonts.googleapis.com%2Fcss%3Ffamily%3DGloria%2BHallelujah;fontSize=60;fontColor=default;strokeColor=none;sketch=1;curveFitting=1;jiggle=2;" vertex="1" parent="P5GDUHR9ORlQU1ZmoaOM-1">
          <mxGeometry x="2230" y="234" width="707.42" height="280" as="geometry" />
        </mxCell>
        <mxCell id="P5GDUHR9ORlQU1ZmoaOM-5" value="1. Check Local SQLite DB" style="whiteSpace=wrap;strokeWidth=5;rounded=1;sketch=1;curveFitting=1;jiggle=2;fillColor=#d5e8d4;strokeColor=#82b366;fillStyle=solid;fontSize=75;fontFamily=Gloria Hallelujah;fontSource=https%3A%2F%2Ffonts.googleapis.com%2Fcss%3Ffamily%3DGloria%2BHallelujah;glass=0;dashed=1;dashPattern=12 12;" vertex="1" parent="P5GDUHR9ORlQU1ZmoaOM-1">
          <mxGeometry x="200" y="470" width="1170" height="154" as="geometry" />
        </mxCell>
        <mxCell id="P5GDUHR9ORlQU1ZmoaOM-6" value="2. Establish WebSocket Connection" style="whiteSpace=wrap;strokeWidth=5;rounded=1;dashed=1;dashPattern=12 12;sketch=1;jiggle=2;fillStyle=solid;curveFitting=1;strokeColor=#82b366;align=center;verticalAlign=middle;fontFamily=Gloria Hallelujah;fontSource=https%3A%2F%2Ffonts.googleapis.com%2Fcss%3Ffamily%3DGloria%2BHallelujah;fontSize=75;fontColor=default;fillColor=#d5e8d4;" vertex="1" parent="P5GDUHR9ORlQU1ZmoaOM-1">
          <mxGeometry x="1420" y="760" width="1490" height="164" as="geometry" />
        </mxCell>
        <mxCell id="P5GDUHR9ORlQU1ZmoaOM-7" value="3. API Gateway Request" style="whiteSpace=wrap;strokeWidth=5;rounded=1;dashed=1;dashPattern=12 12;sketch=1;jiggle=2;fillStyle=solid;curveFitting=1;strokeColor=#82b366;align=center;verticalAlign=middle;fontFamily=Gloria Hallelujah;fontSource=https%3A%2F%2Ffonts.googleapis.com%2Fcss%3Ffamily%3DGloria%2BHallelujah;fontSize=75;fontColor=default;fillColor=#d5e8d4;" vertex="1" parent="P5GDUHR9ORlQU1ZmoaOM-1">
          <mxGeometry x="200" y="1090" width="1153.5" height="154" as="geometry" />
        </mxCell>
        <mxCell id="P5GDUHR9ORlQU1ZmoaOM-8" value="4. Fetch temporary messages" style="whiteSpace=wrap;strokeWidth=5;rounded=1;dashed=1;dashPattern=12 12;sketch=1;jiggle=2;fillStyle=solid;curveFitting=1;strokeColor=#82b366;align=center;verticalAlign=middle;fontFamily=Gloria Hallelujah;fontSource=https%3A%2F%2Ffonts.googleapis.com%2Fcss%3Ffamily%3DGloria%2BHallelujah;fontSize=75;fontColor=default;fillColor=#d5e8d4;" vertex="1" parent="P5GDUHR9ORlQU1ZmoaOM-1">
          <mxGeometry x="1360" y="1410" width="1560" height="170" as="geometry" />
        </mxCell>
        <mxCell id="P5GDUHR9ORlQU1ZmoaOM-9" value="5. Apply E2E Encryption" style="whiteSpace=wrap;strokeWidth=5;rounded=1;dashed=1;dashPattern=12 12;sketch=1;jiggle=2;fillStyle=solid;curveFitting=1;strokeColor=#82b366;align=center;verticalAlign=middle;fontFamily=Gloria Hallelujah;fontSource=https%3A%2F%2Ffonts.googleapis.com%2Fcss%3Ffamily%3DGloria%2BHallelujah;fontSize=75;fontColor=default;fillColor=#d5e8d4;" vertex="1" parent="P5GDUHR9ORlQU1ZmoaOM-1">
          <mxGeometry x="200" y="1800" width="1610" height="170" as="geometry" />
        </mxCell>
        <mxCell id="P5GDUHR9ORlQU1ZmoaOM-10" value="6. Load Media from CDN" style="whiteSpace=wrap;strokeWidth=5;rounded=1;dashed=1;dashPattern=12 12;sketch=1;jiggle=2;fillStyle=solid;curveFitting=1;strokeColor=#82b366;align=center;verticalAlign=middle;fontFamily=Gloria Hallelujah;fontSource=https%3A%2F%2Ffonts.googleapis.com%2Fcss%3Ffamily%3DGloria%2BHallelujah;fontSize=75;fontColor=default;fillColor=#d5e8d4;" vertex="1" parent="P5GDUHR9ORlQU1ZmoaOM-1">
          <mxGeometry x="1400" y="2240" width="1510" height="174" as="geometry" />
        </mxCell>
        <mxCell id="P5GDUHR9ORlQU1ZmoaOM-11" value="7. Update UI" style="whiteSpace=wrap;strokeWidth=5;rounded=1;dashed=1;dashPattern=12 12;sketch=1;jiggle=2;fillStyle=solid;curveFitting=1;strokeColor=#82b366;align=center;verticalAlign=middle;fontFamily=Gloria Hallelujah;fontSource=https%3A%2F%2Ffonts.googleapis.com%2Fcss%3Ffamily%3DGloria%2BHallelujah;fontSize=75;fontColor=default;fillColor=#d5e8d4;" vertex="1" parent="P5GDUHR9ORlQU1ZmoaOM-1">
          <mxGeometry x="200" y="2660" width="1199" height="184" as="geometry" />
        </mxCell>
        <mxCell id="P5GDUHR9ORlQU1ZmoaOM-13" value="" style="startArrow=none;endArrow=block;exitX=0.5;exitY=1;entryX=0.5;entryY=0;rounded=1;fillStyle=solid;strokeColor=#b85450;strokeWidth=10;align=center;verticalAlign=middle;fontFamily=Helvetica;fontSize=11;fontColor=default;labelBackgroundColor=default;fillColor=#f8cecc;shape=flexArrow;flowAnimation=1;edgeStyle=orthogonalEdgeStyle;dashed=1;dashPattern=8 8;gradientColor=none;flowAnimationDuration=200;" edge="1" parent="P5GDUHR9ORlQU1ZmoaOM-1" source="P5GDUHR9ORlQU1ZmoaOM-5" target="P5GDUHR9ORlQU1ZmoaOM-6">
          <mxGeometry relative="1" as="geometry" />
        </mxCell>
        <mxCell id="P5GDUHR9ORlQU1ZmoaOM-14" value="" style="startArrow=none;endArrow=block;exitX=0.5;exitY=1;entryX=0.5;entryY=0;rounded=1;fillStyle=solid;strokeColor=#b85450;strokeWidth=10;align=center;verticalAlign=middle;fontFamily=Helvetica;fontSize=11;fontColor=default;labelBackgroundColor=default;fillColor=#f8cecc;shape=flexArrow;edgeStyle=orthogonalEdgeStyle;dashed=1;dashPattern=8 8;flowAnimation=1;flowAnimationDuration=200;gradientColor=none;flowAnimationTimingFunction=ease-in-out;" edge="1" parent="P5GDUHR9ORlQU1ZmoaOM-1" source="P5GDUHR9ORlQU1ZmoaOM-6" target="P5GDUHR9ORlQU1ZmoaOM-7">
          <mxGeometry relative="1" as="geometry" />
        </mxCell>
        <mxCell id="P5GDUHR9ORlQU1ZmoaOM-15" value="" style="startArrow=none;endArrow=block;exitX=0.5;exitY=1;entryX=0.5;entryY=0;rounded=1;fillStyle=solid;strokeColor=#b85450;strokeWidth=10;align=center;verticalAlign=middle;fontFamily=Helvetica;fontSize=11;fontColor=default;labelBackgroundColor=default;fillColor=#f8cecc;shape=flexArrow;edgeStyle=orthogonalEdgeStyle;dashed=1;dashPattern=8 8;flowAnimation=1;flowAnimationDuration=200;gradientColor=none;" edge="1" parent="P5GDUHR9ORlQU1ZmoaOM-1" source="P5GDUHR9ORlQU1ZmoaOM-7" target="P5GDUHR9ORlQU1ZmoaOM-8">
          <mxGeometry relative="1" as="geometry" />
        </mxCell>
        <mxCell id="P5GDUHR9ORlQU1ZmoaOM-16" value="" style="startArrow=none;endArrow=block;exitX=0.5;exitY=1;entryX=0.5;entryY=0;rounded=1;fillStyle=solid;strokeColor=#b85450;strokeWidth=10;align=center;verticalAlign=middle;fontFamily=Helvetica;fontSize=11;fontColor=default;labelBackgroundColor=default;fillColor=#f8cecc;shape=flexArrow;edgeStyle=orthogonalEdgeStyle;dashed=1;dashPattern=8 8;flowAnimation=1;flowAnimationDuration=200;gradientColor=none;flowAnimationTimingFunction=ease-in-out;" edge="1" parent="P5GDUHR9ORlQU1ZmoaOM-1" source="P5GDUHR9ORlQU1ZmoaOM-8" target="P5GDUHR9ORlQU1ZmoaOM-9">
          <mxGeometry relative="1" as="geometry" />
        </mxCell>
        <mxCell id="P5GDUHR9ORlQU1ZmoaOM-17" value="" style="startArrow=none;endArrow=block;exitX=0.5;exitY=1;entryX=0.5;entryY=0;rounded=1;fillStyle=solid;strokeColor=#b85450;strokeWidth=10;align=center;verticalAlign=middle;fontFamily=Helvetica;fontSize=11;fontColor=default;labelBackgroundColor=default;fillColor=#f8cecc;shape=flexArrow;edgeStyle=orthogonalEdgeStyle;dashed=1;dashPattern=8 8;flowAnimation=1;flowAnimationDuration=200;gradientColor=none;" edge="1" parent="P5GDUHR9ORlQU1ZmoaOM-1" source="P5GDUHR9ORlQU1ZmoaOM-9" target="P5GDUHR9ORlQU1ZmoaOM-10">
          <mxGeometry relative="1" as="geometry" />
        </mxCell>
        <mxCell id="P5GDUHR9ORlQU1ZmoaOM-18" value="" style="startArrow=none;endArrow=block;exitX=0.5;exitY=1;entryX=0.5;entryY=0;rounded=1;fillStyle=solid;strokeColor=#b85450;strokeWidth=10;align=center;verticalAlign=middle;fontFamily=Helvetica;fontSize=11;fontColor=default;labelBackgroundColor=default;fillColor=#f8cecc;shape=flexArrow;edgeStyle=orthogonalEdgeStyle;dashed=1;dashPattern=8 8;flowAnimation=1;flowAnimationDuration=200;gradientColor=none;flowAnimationTimingFunction=ease-in-out;" edge="1" parent="P5GDUHR9ORlQU1ZmoaOM-1" source="P5GDUHR9ORlQU1ZmoaOM-10" target="P5GDUHR9ORlQU1ZmoaOM-11">
          <mxGeometry relative="1" as="geometry" />
        </mxCell>
        <mxCell id="V_BcupfvFw1bAyB9ygvo-0" value="" style="sketch=0;pointerEvents=1;shadow=0;dashed=0;html=1;strokeColor=default;fillColor=#FF6A00;labelPosition=center;verticalLabelPosition=bottom;verticalAlign=middle;align=center;outlineConnect=0;shape=mxgraph.veeam2.scale_out_backup_repository;fontFamily=Helvetica;fontSize=12;fontColor=default;strokeWidth=8;" vertex="1" parent="P5GDUHR9ORlQU1ZmoaOM-1">
          <mxGeometry x="120" y="580" width="180" height="150" as="geometry" />
        </mxCell>
        <mxCell id="V_BcupfvFw1bAyB9ygvo-2" value="" style="pointerEvents=1;shadow=0;dashed=0;html=1;strokeColor=#0080F0;fillColor=light-dark(#FF6A00,#446E2C);labelPosition=center;verticalLabelPosition=bottom;verticalAlign=middle;align=center;outlineConnect=0;shape=mxgraph.veeam.cpu_socket;fontFamily=Helvetica;fontSize=12;fontColor=default;strokeWidth=8;labelBackgroundColor=#ffffff;" vertex="1" parent="P5GDUHR9ORlQU1ZmoaOM-1">
          <mxGeometry x="2790" y="880" width="170" height="140" as="geometry" />
        </mxCell>
        <mxCell id="V_BcupfvFw1bAyB9ygvo-3" value="" style="points=[];aspect=fixed;html=1;align=center;shadow=0;dashed=0;fillColor=light-dark(#FF6A00,#446E2C);strokeColor=#0080F0;shape=mxgraph.alibaba_cloud.apigateway;pointerEvents=1;strokeWidth=8;verticalAlign=middle;fontFamily=Helvetica;fontSize=12;fontColor=default;labelBackgroundColor=#ffffff;" vertex="1" parent="P5GDUHR9ORlQU1ZmoaOM-1">
          <mxGeometry x="120" y="1190" width="155.4" height="150" as="geometry" />
        </mxCell>
        <mxCell id="V_BcupfvFw1bAyB9ygvo-4" value="" style="html=1;verticalLabelPosition=bottom;align=center;labelBackgroundColor=#ffffff;verticalAlign=middle;strokeWidth=8;strokeColor=light-dark(#000000,#32A0FF);shadow=0;dashed=0;shape=mxgraph.ios7.icons.messages;fontFamily=Helvetica;fontSize=12;fontColor=default;fillColor=#FF6A00;gradientColor=none;" vertex="1" parent="P5GDUHR9ORlQU1ZmoaOM-1">
          <mxGeometry x="2790" y="1530" width="150" height="120" as="geometry" />
        </mxCell>
        <mxCell id="V_BcupfvFw1bAyB9ygvo-5" value="" style="outlineConnect=0;dashed=0;verticalLabelPosition=bottom;verticalAlign=middle;align=center;html=1;shape=mxgraph.aws3.data_encryption_key;fillColor=#FF6A00;gradientColor=none;shadow=0;fontFamily=Helvetica;fontSize=12;fontColor=default;strokeWidth=8;strokeColor=light-dark(#000000,#32A0FF);" vertex="1" parent="P5GDUHR9ORlQU1ZmoaOM-1">
          <mxGeometry x="168.03" y="1920" width="140" height="130" as="geometry" />
        </mxCell>
        <mxCell id="V_BcupfvFw1bAyB9ygvo-6" value="" style="points=[];aspect=fixed;html=1;align=center;shadow=0;dashed=0;fillColor=light-dark(#FF6A00,#446E2C);strokeColor=#0080F0;shape=mxgraph.alibaba_cloud.cdn_content_distribution_network;strokeWidth=8;verticalAlign=middle;fontFamily=Helvetica;fontSize=12;fontColor=default;labelBackgroundColor=#ffffff;" vertex="1" parent="P5GDUHR9ORlQU1ZmoaOM-1">
          <mxGeometry x="2800" y="2380" width="168.79" height="140" as="geometry" />
        </mxCell>
        <mxCell id="V_BcupfvFw1bAyB9ygvo-7" value="" style="html=1;verticalLabelPosition=bottom;labelBackgroundColor=#ffffff;verticalAlign=middle;shadow=0;dashed=0;strokeWidth=8;shape=mxgraph.ios7.misc.iphone;strokeColor=#0080F0;align=center;fontFamily=Helvetica;fontSize=12;fontColor=default;fillColor=light-dark(#FF6A00,#446E2C);pointerEvents=1;" vertex="1" parent="P5GDUHR9ORlQU1ZmoaOM-1">
          <mxGeometry x="147.7" y="2750" width="100" height="170" as="geometry" />
        </mxCell>
      </root>
    </mxGraphModel>
  </diagram>
  <diagram name="10 HLD" id="fAFCo7o-SEZf2FzMNsCG">
    <mxGraphModel dx="4134" dy="3372" grid="1" gridSize="10" guides="1" tooltips="1" connect="1" arrows="1" fold="1" page="1" pageScale="1" pageWidth="3000" pageHeight="3000" background="light-dark(#FFFFFF,#000000)" math="0" shadow="0">
      <root>
        <mxCell id="7MsBo0h-qasfWEglX45h-0" />
        <mxCell id="7MsBo0h-qasfWEglX45h-1" parent="7MsBo0h-qasfWEglX45h-0" />
        <mxCell id="sVp68NPoIiejX9bQln8f-17" value="Client Side&lt;div&gt;&lt;br&gt;&lt;/div&gt;" style="rounded=1;whiteSpace=wrap;html=1;fillStyle=solid;strokeColor=#3A5431;fillColor=light-dark(#6D8764,#1F2F1E);fontColor=light-dark(#FFFFFF,#76B7AC);fontFamily=Gloria Hallelujah;fontSource=https%3A%2F%2Ffonts.googleapis.com%2Fcss%3Ffamily%3DGloria%2BHallelujah;fontSize=75;labelPosition=center;verticalLabelPosition=top;align=center;verticalAlign=bottom;dashed=1;dashPattern=12 12;sketch=1;curveFitting=1;jiggle=2;strokeWidth=5;" vertex="1" parent="7MsBo0h-qasfWEglX45h-1">
          <mxGeometry x="130" y="900" width="740" height="1120" as="geometry" />
        </mxCell>
        <mxCell id="sVp68NPoIiejX9bQln8f-16" value="&lt;div&gt;&lt;br&gt;&lt;/div&gt;Server Side" style="rounded=1;whiteSpace=wrap;html=1;strokeColor=#3A5431;fillStyle=solid;align=center;verticalAlign=top;fontFamily=Gloria Hallelujah;fontSize=75;fontColor=light-dark(#FFFFFF,#76B7AC);fillColor=light-dark(#6D8764,#1F2F1E);fontSource=https%3A%2F%2Ffonts.googleapis.com%2Fcss%3Ffamily%3DGloria%2BHallelujah;labelPosition=center;verticalLabelPosition=bottom;dashed=1;dashPattern=12 12;strokeWidth=5;" vertex="1" parent="7MsBo0h-qasfWEglX45h-1">
          <mxGeometry x="1500" y="690" width="1430" height="1280" as="geometry" />
        </mxCell>
        <mxCell id="7MsBo0h-qasfWEglX45h-4" value="&lt;font style=&quot;color: light-dark(rgb(0, 0, 0), rgb(118, 183, 172)); font-size: 80px;&quot;&gt;System Design Engineer&lt;/font&gt;" style="text;html=1;align=center;verticalAlign=middle;whiteSpace=wrap;rounded=1;fontFamily=Gloria Hallelujah;fontSource=https%3A%2F%2Ffonts.googleapis.com%2Fcss%3Ffamily%3DGloria%2BHallelujah;fontSize=60;fontColor=default;strokeColor=none;sketch=1;curveFitting=1;jiggle=2;" vertex="1" parent="7MsBo0h-qasfWEglX45h-1">
          <mxGeometry x="2222.58" y="320" width="707.42" height="280" as="geometry" />
        </mxCell>
        <mxCell id="L5oTKVnye_dIRQ0ot4ZG-5" value="API&amp;nbsp;&lt;div&gt;Gateway&lt;/div&gt;" style="outlineConnect=0;dashed=1;verticalLabelPosition=middle;verticalAlign=middle;align=left;html=1;shape=mxgraph.aws3.api_gateway;fillColor=light-dark(#FFFFFF,#333333);gradientColor=none;strokeColor=default;fontFamily=Gloria Hallelujah;fontSource=https%3A%2F%2Ffonts.googleapis.com%2Fcss%3Ffamily%3DGloria%2BHallelujah;fontSize=75;fontColor=default;labelBackgroundColor=none;strokeWidth=5;fillStyle=solid;sketch=1;curveFitting=1;jiggle=2;dashPattern=12 12;labelPosition=right;" vertex="1" parent="7MsBo0h-qasfWEglX45h-1">
          <mxGeometry x="1596" y="1180" width="410" height="330" as="geometry" />
        </mxCell>
        <mxCell id="L5oTKVnye_dIRQ0ot4ZG-6" value="Database" style="sketch=1;shadow=0;dashed=1;strokeColor=default;labelPosition=center;verticalLabelPosition=bottom;verticalAlign=top;outlineConnect=0;align=center;shape=mxgraph.office.databases.database_mini_2;fillColor=light-dark(#FFFFFF,#333333);fontFamily=Gloria Hallelujah;fontSource=https%3A%2F%2Ffonts.googleapis.com%2Fcss%3Ffamily%3DGloria%2BHallelujah;fontSize=75;fontColor=default;labelBackgroundColor=none;gradientColor=none;labelBorderColor=none;spacing=0;strokeWidth=5;curveFitting=1;jiggle=2;dashPattern=12 12;" vertex="1" parent="7MsBo0h-qasfWEglX45h-1">
          <mxGeometry x="2410" y="1430" width="430" height="370" as="geometry" />
        </mxCell>
        <mxCell id="L5oTKVnye_dIRQ0ot4ZG-7" value="CDN&#xa;&#xa;" style="points=[];aspect=fixed;align=center;shadow=0;dashed=1;fillColor=light-dark(#FFFFFF,#333333);strokeColor=default;shape=mxgraph.alibaba_cloud.cdn_content_distribution_network;sketch=1;verticalAlign=top;spacing=0;fontFamily=Gloria Hallelujah;fontSource=https%3A%2F%2Ffonts.googleapis.com%2Fcss%3Ffamily%3DGloria%2BHallelujah;fontSize=75;fontColor=default;labelBorderColor=none;labelBackgroundColor=none;gradientColor=none;labelPosition=center;verticalLabelPosition=bottom;strokeWidth=5;curveFitting=1;jiggle=2;dashPattern=12 12;" vertex="1" parent="7MsBo0h-qasfWEglX45h-1">
          <mxGeometry x="1584.01" y="2510" width="421.99" height="350" as="geometry" />
        </mxCell>
        <mxCell id="L5oTKVnye_dIRQ0ot4ZG-9" value="WhatsApp&lt;div&gt;Client&lt;/div&gt;" style="shape=image;html=1;verticalAlign=middle;verticalLabelPosition=middle;labelBackgroundColor=none;imageAspect=0;aspect=fixed;image=https://cdn4.iconfinder.com/data/icons/miu-black-social-2/60/whatsapp-128.png;strokeColor=default;strokeWidth=5;align=right;fontFamily=Gloria Hallelujah;fontSource=https%3A%2F%2Ffonts.googleapis.com%2Fcss%3Ffamily%3DGloria%2BHallelujah;fontSize=75;fontColor=default;fillColor=default;labelPosition=left;sketch=1;curveFitting=1;jiggle=2;imageBackground=none;" vertex="1" parent="7MsBo0h-qasfWEglX45h-1">
          <mxGeometry x="540" y="1120" width="270" height="270" as="geometry" />
        </mxCell>
        <mxCell id="sVp68NPoIiejX9bQln8f-0" value="" style="startArrow=none;endArrow=block;rounded=1;fillStyle=solid;strokeColor=#b85450;strokeWidth=10;align=center;verticalAlign=middle;fontFamily=Helvetica;fontSize=11;fontColor=default;labelBackgroundColor=default;fillColor=#f8cecc;shape=flexArrow;flowAnimation=1;dashed=1;dashPattern=8 8;gradientColor=none;flowAnimationDuration=200;exitX=0.5;exitY=1;exitDx=0;exitDy=0;entryX=0.5;entryY=0;entryDx=0;entryDy=0;entryPerimeter=0;" edge="1" parent="7MsBo0h-qasfWEglX45h-1" source="L5oTKVnye_dIRQ0ot4ZG-9" target="sVp68NPoIiejX9bQln8f-14">
          <mxGeometry relative="1" as="geometry">
            <mxPoint x="785" y="624" as="sourcePoint" />
            <mxPoint x="545" y="1800" as="targetPoint" />
          </mxGeometry>
        </mxCell>
        <mxCell id="sVp68NPoIiejX9bQln8f-1" value="" style="startArrow=none;endArrow=block;rounded=1;fillStyle=solid;strokeColor=#b85450;strokeWidth=10;align=center;verticalAlign=middle;fontFamily=Helvetica;fontSize=11;fontColor=default;labelBackgroundColor=default;fillColor=#f8cecc;shape=flexArrow;flowAnimation=1;edgeStyle=orthogonalEdgeStyle;dashed=1;dashPattern=8 8;gradientColor=none;flowAnimationDuration=200;" edge="1" parent="7MsBo0h-qasfWEglX45h-1" source="sVp68NPoIiejX9bQln8f-15" target="L5oTKVnye_dIRQ0ot4ZG-6">
          <mxGeometry relative="1" as="geometry">
            <mxPoint x="1330" y="290" as="sourcePoint" />
            <mxPoint x="1330" y="686" as="targetPoint" />
          </mxGeometry>
        </mxCell>
        <mxCell id="sVp68NPoIiejX9bQln8f-3" value="" style="startArrow=none;endArrow=block;rounded=1;fillStyle=solid;strokeColor=#b85450;strokeWidth=10;align=center;verticalAlign=middle;fontFamily=Helvetica;fontSize=11;fontColor=default;labelBackgroundColor=default;fillColor=#f8cecc;shape=flexArrow;flowAnimation=1;edgeStyle=orthogonalEdgeStyle;dashed=1;dashPattern=8 8;gradientColor=none;flowAnimationDuration=200;exitX=1;exitY=0.5;exitDx=0;exitDy=0;" edge="1" parent="7MsBo0h-qasfWEglX45h-1" source="L5oTKVnye_dIRQ0ot4ZG-9" target="L5oTKVnye_dIRQ0ot4ZG-5">
          <mxGeometry relative="1" as="geometry">
            <mxPoint x="650" y="460" as="sourcePoint" />
            <mxPoint x="650" y="856" as="targetPoint" />
          </mxGeometry>
        </mxCell>
        <mxCell id="sVp68NPoIiejX9bQln8f-4" value="" style="startArrow=none;endArrow=block;rounded=1;fillStyle=solid;strokeColor=#b85450;strokeWidth=10;align=center;verticalAlign=middle;fontFamily=Helvetica;fontSize=11;fontColor=default;labelBackgroundColor=default;fillColor=#f8cecc;shape=flexArrow;flowAnimation=1;edgeStyle=orthogonalEdgeStyle;dashed=1;dashPattern=8 8;gradientColor=none;flowAnimationDuration=200;" edge="1" parent="7MsBo0h-qasfWEglX45h-1" source="L5oTKVnye_dIRQ0ot4ZG-5" target="sVp68NPoIiejX9bQln8f-15">
          <mxGeometry relative="1" as="geometry">
            <mxPoint x="870" y="350" as="sourcePoint" />
            <mxPoint x="2270" y="800" as="targetPoint" />
            <Array as="points">
              <mxPoint x="1795" y="900" />
            </Array>
          </mxGeometry>
        </mxCell>
        <mxCell id="sVp68NPoIiejX9bQln8f-5" value="" style="startArrow=none;endArrow=block;rounded=1;fillStyle=solid;strokeColor=#b85450;strokeWidth=10;align=center;verticalAlign=middle;fontFamily=Helvetica;fontSize=11;fontColor=default;labelBackgroundColor=default;fillColor=#f8cecc;shape=flexArrow;flowAnimation=1;dashed=1;dashPattern=8 8;gradientColor=none;flowAnimationDuration=200;edgeStyle=orthogonalEdgeStyle;" edge="1" parent="7MsBo0h-qasfWEglX45h-1" source="L5oTKVnye_dIRQ0ot4ZG-5" target="L5oTKVnye_dIRQ0ot4ZG-7">
          <mxGeometry relative="1" as="geometry">
            <mxPoint x="1734" y="1494" as="sourcePoint" />
            <mxPoint x="1734" y="1890" as="targetPoint" />
          </mxGeometry>
        </mxCell>
        <mxCell id="sVp68NPoIiejX9bQln8f-14" value="&lt;div&gt;&lt;br&gt;&lt;/div&gt;sQL&amp;nbsp;&lt;div&gt;Lite&lt;/div&gt;" style="strokeWidth=5;html=1;shape=mxgraph.flowchart.database;whiteSpace=wrap;dashed=0;sketch=1;jiggle=2;curveFitting=1;strokeColor=default;align=center;verticalAlign=middle;fontFamily=Gloria Hallelujah;fontSource=https%3A%2F%2Ffonts.googleapis.com%2Fcss%3Ffamily%3DGloria%2BHallelujah;fontSize=75;fontColor=default;labelBackgroundColor=none;fillColor=light-dark(#FFFFFF,#333333);gradientColor=none;labelPosition=center;verticalLabelPosition=middle;" vertex="1" parent="7MsBo0h-qasfWEglX45h-1">
          <mxGeometry x="560" y="1580" width="240" height="370" as="geometry" />
        </mxCell>
        <mxCell id="sVp68NPoIiejX9bQln8f-15" value="Service" style="sketch=1;outlineConnect=0;fontColor=default;gradientColor=none;fillColor=light-dark(#FFFFFF,#1A1A1A);strokeColor=default;dashed=0;verticalLabelPosition=top;verticalAlign=bottom;align=center;html=1;fontSize=75;fontStyle=0;aspect=fixed;pointerEvents=1;shape=mxgraph.aws4.ec2_aws_microservice_extractor_for_net;shadow=0;jiggle=2;curveFitting=1;strokeWidth=5;spacing=0;fontFamily=Gloria Hallelujah;fontSource=https%3A%2F%2Ffonts.googleapis.com%2Fcss%3Ffamily%3DGloria%2BHallelujah;labelBorderColor=none;labelBackgroundColor=none;labelPosition=center;fillStyle=solid;" vertex="1" parent="7MsBo0h-qasfWEglX45h-1">
          <mxGeometry x="2460" y="840" width="330" height="330" as="geometry" />
        </mxCell>
        <mxCell id="7gjwOHngjY2X20Wh-K_Z-2" value="" style="group" vertex="1" connectable="0" parent="7MsBo0h-qasfWEglX45h-1">
          <mxGeometry x="130" y="100" width="2790" height="210" as="geometry" />
        </mxCell>
        <mxCell id="7MsBo0h-qasfWEglX45h-2" value="&lt;div&gt;&lt;font&gt;WhatsApp&amp;nbsp;&lt;font color=&quot;#b043a2&quot;&gt;&lt;span style=&quot;caret-color: rgb(176, 67, 162);&quot;&gt;Chats&lt;/span&gt;&lt;/font&gt;&amp;nbsp;Loading High Level Architecture&amp;nbsp;&lt;/font&gt;&lt;/div&gt;" style="text;html=1;align=center;verticalAlign=middle;whiteSpace=wrap;rounded=0;fontFamily=Gloria Hallelujah;fontSource=https%3A%2F%2Ffonts.googleapis.com%2Fcss%3Ffamily%3DGloria%2BHallelujah;fontSize=110;fontColor=default;" vertex="1" parent="7gjwOHngjY2X20Wh-K_Z-2">
          <mxGeometry x="38.03" width="2751.97" height="210" as="geometry" />
        </mxCell>
        <mxCell id="7MsBo0h-qasfWEglX45h-3" value="" style="shape=link;html=1;rounded=0;fontFamily=Gloria Hallelujah;fontSource=https%3A%2F%2Ffonts.googleapis.com%2Fcss%3Ffamily%3DGloria%2BHallelujah;fontSize=31;fontColor=default;width=0;strokeColor=light-dark(#000000,#76B7AC);strokeWidth=8;" edge="1" parent="7gjwOHngjY2X20Wh-K_Z-2">
          <mxGeometry width="100" relative="1" as="geometry">
            <mxPoint y="210" as="sourcePoint" />
            <mxPoint as="targetPoint" />
          </mxGeometry>
        </mxCell>
        <mxCell id="7gjwOHngjY2X20Wh-K_Z-3" value="" style="sketch=1;verticalLabelPosition=bottom;sketch=0;aspect=fixed;html=1;verticalAlign=top;strokeColor=default;fillColor=light-dark(#000000,#76B7AC);align=center;outlineConnect=0;pointerEvents=1;shape=mxgraph.citrix2.mobile;gradientColor=none;dashed=1;dashPattern=12 12;curveFitting=1;jiggle=2;" vertex="1" parent="7MsBo0h-qasfWEglX45h-1">
          <mxGeometry x="190" y="680" width="85.87" height="170" as="geometry" />
        </mxCell>
      </root>
    </mxGraphModel>
  </diagram>
  <diagram name="11 Flow" id="DFea14370imycxpqqkC4">
    <mxGraphModel dx="4144" dy="2892" grid="1" gridSize="10" guides="1" tooltips="1" connect="1" arrows="1" fold="1" page="1" pageScale="1" pageWidth="3000" pageHeight="3000" background="light-dark(#FFFFFF,#000000)" math="0" shadow="0">
      <root>
        <mxCell id="7xyNMI6ROkWSgnTzkqOO-0" />
        <mxCell id="7xyNMI6ROkWSgnTzkqOO-1" parent="7xyNMI6ROkWSgnTzkqOO-0" />
        <mxCell id="7xyNMI6ROkWSgnTzkqOO-2" value="&lt;div&gt;&lt;font&gt;When Kamran tap &lt;font color=&quot;#b043a2&quot;&gt;&lt;span style=&quot;caret-color: rgb(176, 67, 162);&quot;&gt;Chats&lt;/span&gt;&lt;/font&gt;&amp;nbsp;Tab on WhatsApp&lt;/font&gt;&lt;/div&gt;" style="text;html=1;align=left;verticalAlign=middle;whiteSpace=wrap;rounded=0;fontFamily=Gloria Hallelujah;fontSource=https%3A%2F%2Ffonts.googleapis.com%2Fcss%3Ffamily%3DGloria%2BHallelujah;fontSize=110;fontColor=default;" vertex="1" parent="7xyNMI6ROkWSgnTzkqOO-1">
          <mxGeometry x="168.03" y="100" width="2751.97" height="96.33" as="geometry" />
        </mxCell>
        <mxCell id="7xyNMI6ROkWSgnTzkqOO-3" value="" style="shape=link;html=1;rounded=0;fontFamily=Gloria Hallelujah;fontSource=https%3A%2F%2Ffonts.googleapis.com%2Fcss%3Ffamily%3DGloria%2BHallelujah;fontSize=31;fontColor=default;width=0;strokeColor=light-dark(#000000,#76B7AC);strokeWidth=8;" edge="1" parent="7xyNMI6ROkWSgnTzkqOO-1">
          <mxGeometry width="100" relative="1" as="geometry">
            <mxPoint x="130" y="196.33333333333331" as="sourcePoint" />
            <mxPoint x="130" y="100" as="targetPoint" />
          </mxGeometry>
        </mxCell>
        <mxCell id="7xyNMI6ROkWSgnTzkqOO-4" value="&lt;font style=&quot;color: light-dark(rgb(0, 0, 0), rgb(118, 183, 172)); font-size: 80px;&quot;&gt;System Design Engineer&lt;/font&gt;" style="text;html=1;align=center;verticalAlign=middle;whiteSpace=wrap;rounded=1;fontFamily=Gloria Hallelujah;fontSource=https%3A%2F%2Ffonts.googleapis.com%2Fcss%3Ffamily%3DGloria%2BHallelujah;fontSize=60;fontColor=default;strokeColor=none;sketch=1;curveFitting=1;jiggle=2;" vertex="1" parent="7xyNMI6ROkWSgnTzkqOO-1">
          <mxGeometry x="2230" y="234" width="707.42" height="280" as="geometry" />
        </mxCell>
        <mxCell id="7xyNMI6ROkWSgnTzkqOO-5" value="1. Message Initiation" style="whiteSpace=wrap;strokeWidth=5;rounded=1;sketch=1;curveFitting=1;jiggle=2;fillColor=#d5e8d4;strokeColor=#82b366;fillStyle=solid;fontSize=75;fontFamily=Gloria Hallelujah;fontSource=https%3A%2F%2Ffonts.googleapis.com%2Fcss%3Ffamily%3DGloria%2BHallelujah;glass=0;dashed=1;dashPattern=12 12;" vertex="1" parent="7xyNMI6ROkWSgnTzkqOO-1">
          <mxGeometry x="200" y="470" width="1170" height="154" as="geometry" />
        </mxCell>
        <mxCell id="7xyNMI6ROkWSgnTzkqOO-6" value="2. Client Processing" style="whiteSpace=wrap;strokeWidth=5;rounded=1;dashed=1;dashPattern=12 12;sketch=1;jiggle=2;fillStyle=solid;curveFitting=1;strokeColor=#82b366;align=center;verticalAlign=middle;fontFamily=Gloria Hallelujah;fontSource=https%3A%2F%2Ffonts.googleapis.com%2Fcss%3Ffamily%3DGloria%2BHallelujah;fontSize=75;fontColor=default;fillColor=#d5e8d4;" vertex="1" parent="7xyNMI6ROkWSgnTzkqOO-1">
          <mxGeometry x="1420" y="760" width="1490" height="164" as="geometry" />
        </mxCell>
        <mxCell id="7xyNMI6ROkWSgnTzkqOO-7" value="3. Server Communication" style="whiteSpace=wrap;strokeWidth=5;rounded=1;dashed=1;dashPattern=12 12;sketch=1;jiggle=2;fillStyle=solid;curveFitting=1;strokeColor=#82b366;align=center;verticalAlign=middle;fontFamily=Gloria Hallelujah;fontSource=https%3A%2F%2Ffonts.googleapis.com%2Fcss%3Ffamily%3DGloria%2BHallelujah;fontSize=75;fontColor=default;fillColor=#d5e8d4;" vertex="1" parent="7xyNMI6ROkWSgnTzkqOO-1">
          <mxGeometry x="200" y="1090" width="1400" height="154" as="geometry" />
        </mxCell>
        <mxCell id="7xyNMI6ROkWSgnTzkqOO-8" value="4. Message Queueing" style="whiteSpace=wrap;strokeWidth=5;rounded=1;dashed=1;dashPattern=12 12;sketch=1;jiggle=2;fillStyle=solid;curveFitting=1;strokeColor=#82b366;align=center;verticalAlign=middle;fontFamily=Gloria Hallelujah;fontSource=https%3A%2F%2Ffonts.googleapis.com%2Fcss%3Ffamily%3DGloria%2BHallelujah;fontSize=75;fontColor=default;fillColor=#d5e8d4;" vertex="1" parent="7xyNMI6ROkWSgnTzkqOO-1">
          <mxGeometry x="1360" y="1410" width="1560" height="170" as="geometry" />
        </mxCell>
        <mxCell id="7xyNMI6ROkWSgnTzkqOO-10" value="7. Store &amp; &#xa;Push Notification" style="whiteSpace=wrap;strokeWidth=5;rounded=1;dashed=1;dashPattern=12 12;sketch=1;jiggle=2;fillStyle=solid;curveFitting=1;strokeColor=#82b366;align=center;verticalAlign=middle;fontFamily=Gloria Hallelujah;fontSource=https%3A%2F%2Ffonts.googleapis.com%2Fcss%3Ffamily%3DGloria%2BHallelujah;fontSize=75;fontColor=default;fillColor=#d5e8d4;" vertex="1" parent="7xyNMI6ROkWSgnTzkqOO-1">
          <mxGeometry x="1840" y="2410" width="1140" height="410" as="geometry" />
        </mxCell>
        <mxCell id="7xyNMI6ROkWSgnTzkqOO-11" value="5. Immediate Delivery" style="whiteSpace=wrap;strokeWidth=5;rounded=1;dashed=1;dashPattern=12 12;sketch=1;jiggle=2;fillStyle=solid;curveFitting=1;strokeColor=#82b366;align=center;verticalAlign=middle;fontFamily=Gloria Hallelujah;fontSource=https%3A%2F%2Ffonts.googleapis.com%2Fcss%3Ffamily%3DGloria%2BHallelujah;fontSize=75;fontColor=default;fillColor=#d5e8d4;" vertex="1" parent="7xyNMI6ROkWSgnTzkqOO-1">
          <mxGeometry x="110" y="2226" width="720" height="324" as="geometry" />
        </mxCell>
        <mxCell id="7xyNMI6ROkWSgnTzkqOO-12" value="" style="startArrow=none;endArrow=block;exitX=0.5;exitY=1;entryX=0.5;entryY=0;rounded=1;fillStyle=solid;strokeColor=#b85450;strokeWidth=10;align=center;verticalAlign=middle;fontFamily=Helvetica;fontSize=11;fontColor=default;labelBackgroundColor=default;fillColor=#f8cecc;shape=flexArrow;flowAnimation=1;edgeStyle=orthogonalEdgeStyle;dashed=1;dashPattern=8 8;gradientColor=none;flowAnimationDuration=200;" edge="1" parent="7xyNMI6ROkWSgnTzkqOO-1" source="7xyNMI6ROkWSgnTzkqOO-5" target="7xyNMI6ROkWSgnTzkqOO-6">
          <mxGeometry relative="1" as="geometry" />
        </mxCell>
        <mxCell id="7xyNMI6ROkWSgnTzkqOO-13" value="" style="startArrow=none;endArrow=block;exitX=0.5;exitY=1;entryX=0.5;entryY=0;rounded=1;fillStyle=solid;strokeColor=#b85450;strokeWidth=10;align=center;verticalAlign=middle;fontFamily=Helvetica;fontSize=11;fontColor=default;labelBackgroundColor=default;fillColor=#f8cecc;shape=flexArrow;edgeStyle=orthogonalEdgeStyle;dashed=1;dashPattern=8 8;flowAnimation=1;flowAnimationDuration=200;gradientColor=none;flowAnimationTimingFunction=ease-in-out;" edge="1" parent="7xyNMI6ROkWSgnTzkqOO-1" source="7xyNMI6ROkWSgnTzkqOO-6" target="7xyNMI6ROkWSgnTzkqOO-7">
          <mxGeometry relative="1" as="geometry" />
        </mxCell>
        <mxCell id="7xyNMI6ROkWSgnTzkqOO-14" value="" style="startArrow=none;endArrow=block;exitX=0.5;exitY=1;entryX=0.5;entryY=0;rounded=1;fillStyle=solid;strokeColor=#b85450;strokeWidth=10;align=center;verticalAlign=middle;fontFamily=Helvetica;fontSize=11;fontColor=default;labelBackgroundColor=default;fillColor=#f8cecc;shape=flexArrow;edgeStyle=orthogonalEdgeStyle;dashed=1;dashPattern=8 8;flowAnimation=1;flowAnimationDuration=200;gradientColor=none;" edge="1" parent="7xyNMI6ROkWSgnTzkqOO-1" source="7xyNMI6ROkWSgnTzkqOO-7" target="7xyNMI6ROkWSgnTzkqOO-8">
          <mxGeometry relative="1" as="geometry" />
        </mxCell>
        <mxCell id="7xyNMI6ROkWSgnTzkqOO-15" value="\" style="startArrow=none;endArrow=block;exitX=0.5;exitY=1;entryX=0.5;entryY=0;rounded=1;fillStyle=solid;strokeColor=#b85450;strokeWidth=10;align=center;verticalAlign=middle;fontFamily=Helvetica;fontSize=11;fontColor=default;labelBackgroundColor=default;fillColor=#f8cecc;shape=flexArrow;edgeStyle=orthogonalEdgeStyle;dashed=1;dashPattern=8 8;flowAnimation=1;flowAnimationDuration=200;gradientColor=none;flowAnimationTimingFunction=ease-in-out;entryDx=0;entryDy=0;" edge="1" parent="7xyNMI6ROkWSgnTzkqOO-1" source="7xyNMI6ROkWSgnTzkqOO-8" target="oVNiA0JOrRxgGCNuG1tV-0">
          <mxGeometry relative="1" as="geometry">
            <mxPoint x="1544.0200000000004" y="1810" as="targetPoint" />
          </mxGeometry>
        </mxCell>
        <mxCell id="7xyNMI6ROkWSgnTzkqOO-16" value="Offline" style="startArrow=none;endArrow=block;exitX=1;exitY=0.5;entryX=0.75;entryY=0;rounded=1;fillStyle=solid;strokeColor=#b85450;strokeWidth=10;align=center;verticalAlign=middle;fontFamily=Gloria Hallelujah;fontSize=75;fontColor=default;labelBackgroundColor=default;fillColor=#f8cecc;shape=flexArrow;edgeStyle=orthogonalEdgeStyle;dashed=1;dashPattern=8 8;flowAnimation=1;flowAnimationDuration=200;gradientColor=none;exitDx=0;exitDy=0;fontSource=https%3A%2F%2Ffonts.googleapis.com%2Fcss%3Ffamily%3DGloria%2BHallelujah;entryDx=0;entryDy=0;" edge="1" parent="7xyNMI6ROkWSgnTzkqOO-1" source="oVNiA0JOrRxgGCNuG1tV-0" target="7xyNMI6ROkWSgnTzkqOO-10">
          <mxGeometry x="-0.2444" y="-10" relative="1" as="geometry">
            <mxPoint x="1544.0200000000004" y="1980" as="sourcePoint" />
            <mxPoint x="2" as="offset" />
          </mxGeometry>
        </mxCell>
        <mxCell id="7xyNMI6ROkWSgnTzkqOO-17" value="" style="startArrow=none;endArrow=block;exitX=0.5;exitY=1;entryX=0.5;entryY=0;rounded=1;fillStyle=solid;strokeColor=#b85450;strokeWidth=10;align=center;verticalAlign=middle;fontFamily=Helvetica;fontSize=11;fontColor=default;labelBackgroundColor=default;fillColor=#f8cecc;shape=flexArrow;dashed=1;dashPattern=8 8;flowAnimation=1;flowAnimationDuration=200;gradientColor=none;flowAnimationTimingFunction=ease-in-out;exitDx=0;exitDy=0;entryDx=0;entryDy=0;edgeStyle=orthogonalEdgeStyle;" edge="1" parent="7xyNMI6ROkWSgnTzkqOO-1" source="7xyNMI6ROkWSgnTzkqOO-11" target="oVNiA0JOrRxgGCNuG1tV-2">
          <mxGeometry relative="1" as="geometry">
            <mxPoint x="1124.5" y="2544" as="sourcePoint" />
            <mxPoint x="641.75" y="2670" as="targetPoint" />
          </mxGeometry>
        </mxCell>
        <mxCell id="7xyNMI6ROkWSgnTzkqOO-18" value="" style="sketch=0;pointerEvents=1;shadow=0;dashed=0;html=1;strokeColor=default;fillColor=#FF6A00;labelPosition=center;verticalLabelPosition=bottom;verticalAlign=middle;align=center;outlineConnect=0;shape=mxgraph.veeam2.scale_out_backup_repository;fontFamily=Helvetica;fontSize=12;fontColor=default;strokeWidth=8;" vertex="1" parent="7xyNMI6ROkWSgnTzkqOO-1">
          <mxGeometry x="120" y="580" width="180" height="150" as="geometry" />
        </mxCell>
        <mxCell id="7xyNMI6ROkWSgnTzkqOO-19" value="" style="pointerEvents=1;shadow=0;dashed=0;html=1;strokeColor=#0080F0;fillColor=light-dark(#FF6A00,#446E2C);labelPosition=center;verticalLabelPosition=bottom;verticalAlign=middle;align=center;outlineConnect=0;shape=mxgraph.veeam.cpu_socket;fontFamily=Helvetica;fontSize=12;fontColor=default;strokeWidth=8;labelBackgroundColor=#ffffff;" vertex="1" parent="7xyNMI6ROkWSgnTzkqOO-1">
          <mxGeometry x="2790" y="880" width="170" height="140" as="geometry" />
        </mxCell>
        <mxCell id="7xyNMI6ROkWSgnTzkqOO-20" value="" style="points=[];aspect=fixed;html=1;align=center;shadow=0;dashed=0;fillColor=light-dark(#FF6A00,#446E2C);strokeColor=#0080F0;shape=mxgraph.alibaba_cloud.apigateway;pointerEvents=1;strokeWidth=8;verticalAlign=middle;fontFamily=Helvetica;fontSize=12;fontColor=default;labelBackgroundColor=#ffffff;" vertex="1" parent="7xyNMI6ROkWSgnTzkqOO-1">
          <mxGeometry x="120" y="1190" width="155.4" height="150" as="geometry" />
        </mxCell>
        <mxCell id="7xyNMI6ROkWSgnTzkqOO-21" value="" style="html=1;verticalLabelPosition=bottom;align=center;labelBackgroundColor=#ffffff;verticalAlign=middle;strokeWidth=8;strokeColor=light-dark(#000000,#32A0FF);shadow=0;dashed=0;shape=mxgraph.ios7.icons.messages;fontFamily=Helvetica;fontSize=12;fontColor=default;fillColor=#FF6A00;gradientColor=none;" vertex="1" parent="7xyNMI6ROkWSgnTzkqOO-1">
          <mxGeometry x="2790" y="1530" width="150" height="120" as="geometry" />
        </mxCell>
        <mxCell id="7xyNMI6ROkWSgnTzkqOO-22" value="" style="outlineConnect=0;dashed=0;verticalLabelPosition=bottom;verticalAlign=middle;align=center;html=1;shape=mxgraph.aws3.data_encryption_key;fillColor=#FF6A00;gradientColor=none;shadow=0;fontFamily=Helvetica;fontSize=12;fontColor=default;strokeWidth=8;strokeColor=light-dark(#000000,#32A0FF);" vertex="1" parent="7xyNMI6ROkWSgnTzkqOO-1">
          <mxGeometry x="360" y="1530" width="140" height="130" as="geometry" />
        </mxCell>
        <mxCell id="oVNiA0JOrRxgGCNuG1tV-0" value="Recipient Status" style="rhombus;whiteSpace=wrap;html=1;rounded=1;dashed=1;dashPattern=12 12;sketch=1;jiggle=2;fillStyle=solid;curveFitting=1;strokeColor=#82b366;strokeWidth=5;align=center;verticalAlign=middle;fontFamily=Gloria Hallelujah;fontSource=https%3A%2F%2Ffonts.googleapis.com%2Fcss%3Ffamily%3DGloria%2BHallelujah;fontSize=75;fontColor=default;fillColor=#d5e8d4;" vertex="1" parent="7xyNMI6ROkWSgnTzkqOO-1">
          <mxGeometry x="1045" y="1820" width="910" height="600" as="geometry" />
        </mxCell>
        <mxCell id="oVNiA0JOrRxgGCNuG1tV-2" value="6. Read Receipt" style="whiteSpace=wrap;strokeWidth=5;rounded=1;dashed=1;dashPattern=12 12;sketch=1;jiggle=2;fillStyle=solid;curveFitting=1;strokeColor=#82b366;align=center;verticalAlign=middle;fontFamily=Gloria Hallelujah;fontSource=https%3A%2F%2Ffonts.googleapis.com%2Fcss%3Ffamily%3DGloria%2BHallelujah;fontSize=75;fontColor=default;fillColor=#d5e8d4;" vertex="1" parent="7xyNMI6ROkWSgnTzkqOO-1">
          <mxGeometry x="120" y="2710" width="1014.5" height="184" as="geometry" />
        </mxCell>
        <mxCell id="oVNiA0JOrRxgGCNuG1tV-3" value="Online" style="startArrow=none;endArrow=block;exitX=0;exitY=0.5;entryX=0.25;entryY=0;rounded=1;fillStyle=solid;strokeColor=#b85450;strokeWidth=10;align=center;verticalAlign=middle;fontFamily=Gloria Hallelujah;fontSize=75;fontColor=default;labelBackgroundColor=default;fillColor=#f8cecc;shape=flexArrow;dashed=1;dashPattern=8 8;flowAnimation=1;flowAnimationDuration=200;gradientColor=none;flowAnimationTimingFunction=ease-in-out;exitDx=0;exitDy=0;edgeStyle=orthogonalEdgeStyle;fontSource=https%3A%2F%2Ffonts.googleapis.com%2Fcss%3Ffamily%3DGloria%2BHallelujah;entryDx=0;entryDy=0;" edge="1" parent="7xyNMI6ROkWSgnTzkqOO-1" source="oVNiA0JOrRxgGCNuG1tV-0" target="7xyNMI6ROkWSgnTzkqOO-11">
          <mxGeometry relative="1" as="geometry">
            <mxPoint x="1110" y="2110" as="sourcePoint" />
            <mxPoint x="627" y="2236" as="targetPoint" />
          </mxGeometry>
        </mxCell>
        <mxCell id="oVNiA0JOrRxgGCNuG1tV-4" value="" style="sketch=0;points=[[0,0,0],[0.25,0,0],[0.5,0,0],[0.75,0,0],[1,0,0],[0,1,0],[0.25,1,0],[0.5,1,0],[0.75,1,0],[1,1,0],[0,0.25,0],[0,0.5,0],[0,0.75,0],[1,0.25,0],[1,0.5,0],[1,0.75,0]];outlineConnect=0;fontColor=default;fillColor=light-dark(#FF6A00,#446E2C);strokeColor=#0080F0;dashed=0;verticalLabelPosition=bottom;verticalAlign=middle;align=center;html=1;fontSize=12;fontStyle=0;aspect=fixed;shape=mxgraph.aws4.resourceIcon;resIcon=mxgraph.aws4.managed_streaming_for_kafka;shadow=0;pointerEvents=1;strokeWidth=8;fontFamily=Helvetica;labelBackgroundColor=#ffffff;" vertex="1" parent="7xyNMI6ROkWSgnTzkqOO-1">
          <mxGeometry x="2752" y="2730" width="208" height="208" as="geometry" />
        </mxCell>
        <mxCell id="7xyNMI6ROkWSgnTzkqOO-24" value="" style="html=1;verticalLabelPosition=bottom;labelBackgroundColor=#ffffff;verticalAlign=middle;shadow=0;dashed=0;strokeWidth=8;shape=mxgraph.ios7.misc.iphone;strokeColor=#0080F0;align=center;fontFamily=Helvetica;fontSize=12;fontColor=default;fillColor=light-dark(#FF6A00,#446E2C);pointerEvents=1;" vertex="1" parent="7xyNMI6ROkWSgnTzkqOO-1">
          <mxGeometry x="68.03" y="2780" width="100" height="170" as="geometry" />
        </mxCell>
      </root>
    </mxGraphModel>
  </diagram>
</mxfile>
